# xmcd
# 
# Track frame offsets:
#     150
#     23153
#     47318
#     74288
#     99104
#     128743
#     147124
#     167076
#     193684
#     218781
#     241954
#     270749
#     287710
# 
# Disc length: 4231
# 
# Revision: 1
# Processed by: cddbd v1.5.2PL0 Copyright (c) Steve Scherf et al.
# Submitted via: fre:ac v1.1beta1pre4
# 
DISCID=b310850d
DTITLE=Indigenous - Indigenous
DYEAR=2012
DGENRE=Blues
TTITLE0=Free Yourself, Free Your Mind
TTITLE1=Everywhere I Go
TTITLE2=Jealousy
TTITLE3=Someone Like You
TTITLE4=By My Side
TTITLE5=No Matter What It Takes
TTITLE6=Storm
TTITLE7=Find My Way
TTITLE8=All Those Lies
TTITLE9=The Way I Feel
TTITLE10=Wake Up
TTITLE11=By My Side
TTITLE12=When Tomorrow Comes
EXTD=
EXTT0=
EXTT1=
EXTT2=
EXTT3=
EXTT4=
EXTT5=
EXTT6=
EXTT7=
EXTT8=
EXTT9=
EXTT10=
EXTT11=
EXTT12=
PLAYORDER=
